# xmcd
#
# Track frame offsets: 
#        150
#        2952
#        27595
#        50257
#        59736
#        75444
#        86556
#        101373
#        123984
#        145535
#        167582
#        194727
#        225543
#        245612
#        258467
#        286077
#
# Disc length: 4155 seconds
#
# Revision: 1
# Processed by: cddbd v1.5.2PL0 Copyright (c) Steve Scherf et al.
# Submitted via: ExactAudioCopy v1.0b3
#
DISCID=d5103910
DTITLE=Hans Theessink - Birthday Bash
DYEAR=2009
DGENRE=Blues
TTITLE0=Welcome (feat. Krista Stadler)
TTITLE1=Slow Train
TTITLE2=Brand new dawn (feat. Hans Theessink Band)
TTITLE3=Happy Birthday (feat. Peter Hofbauer, Insingizi, audience)
TTITLE4=Gone Girl
TTITLE5=IT'll be me
TTITLE6=Guess things happen that way (feat. Jack Clement)
TTITLE7=Back home to You (feat. Allan Taylor)
TTITLE8=Banjoman (feat. Allan Taylor, Hans Theessink)
TTITLE9=Shake a hand
TTITLE10=Bring it on home (feat. Theessink, Nalle and Møller
TTITLE11=Another Land (feat. Gottfried Gfrerer)
TTITLE12=Bourgeois Blues (feat. Vlado Kreslin, Hans Theessink)
TTITLE13=Glory of Love (feat. Hans Theessink and Terry Evans, Michael Se
TTITLE13=ida)
TTITLE14=Built for comfort (feat. Hans Theessink, Terry Evans, Jon Sas
TTITLE14=s, Alee Thelfa)
TTITLE15=I shall not be moved (feat. Hans Theessink, Terry Evans, Insi
TTITLE15=ngizi, Jon sass, Alee Thelfa)
EXTD=
EXTT0=
EXTT1=
EXTT2=
EXTT3=
EXTT4=
EXTT5=
EXTT6=
EXTT7=
EXTT8=
EXTT9=
EXTT10=
EXTT11=
EXTT12=
EXTT13=
EXTT14=
EXTT15=
PLAYORDER=
